# xmcd CD database file
#
# Track frame offsets:
#	150
#	13313
#	28363
#	41675
#	56475
#	71713
#	84938
#	99813
#	114125
#	128450
#	142688
#	156288
#	170738
#	185600
#	199938
#	214088
#	228638
#
# Disc length: 3240 seconds
#
# Revision: 2
# Processed by: cddbd v1.4PL0 Copyright (c) Steve Scherf et al.
# Submitted via: CDex 1.50Beta7
#
DISCID=e70ca611
DTITLE=Various Artist - Georgia String Bands (1928 - 1930)
DYEAR=1987
DGENRE=Blues
TTITLE0=Every Day in the Week Blues - Pink Anderson and Simmie Dooley (1928)
TTITLE1=C.C. and O. Blues - - Pink Anderson and Simmie Dooley (1928)
TTITLE2=Papa´s ´Bout to Get Mad - Pink Anderson and Simmie Dooley (1928)
TTITLE3=Gonna Tip Out Tonight - Pink Anderson and Simmie Dooley (1928)
TTITLE4=Georgia Crawl - Henry Williams and Eddie Anthony (1928)
TTITLE5=Lonesome Blues - Henry Williams and Eddie Anthony (1928)
TTITLE6=Old Rock Island Blues - Lonnie Coleman (1929)
TTITLE7=Wild about My Loving - Lonnie Coleman (1929)
TTITLE8=Wringing That Thing - Macon Ed and Tampa Joe (1929)
TTITLE9=Worrying Blues - Macon Ed and Tampa Joe (1929)
TTITLE10=Everything´s Coming My Way - Macon Ed and Tampa Joe (1930)
TTITLE11=Mean Flordia Blues - Macon Ed and Tampa Joe (1930)
TTITLE12=Try That Thing - Macon Ed and Tampa Joe (1930)
TTITLE13=Tickle Britches - Macon Ed and Tampa Joe (1930)
TTITLE14=Tantalizing Bootblack - Macon Ed and Tampa Joe (1930)
TTITLE15=Warm Wipe Stomp - Macon Ed and Tampa Joe (1930)
TTITLE16=I´ll My Harp in Beulah Land - Brothers Wright and Williams (1930)
EXTD=YEAR: 1987
EXTT0=
EXTT1=
EXTT2=
EXTT3=
EXTT4=
EXTT5=
EXTT6=
EXTT7=
EXTT8=
EXTT9=
EXTT10=
EXTT11=
EXTT12=
EXTT13=
EXTT14=
EXTT15=
EXTT16=
PLAYORDER=
